HIERARCHY
ROOT SpineBase
{
  OFFSET 0.000000 0.000000 0.000000
  CHANNELS 6 Xposition Yposition Zposition Zrotation Xrotation Yrotation
  JOINT SpineMid
  {
    OFFSET 0.000000 31.973633 0.000000
    CHANNELS 3 Zrotation Xrotation Yrotation
    JOINT SpineShoulder
    {
      OFFSET 0.446651 23.518241 -0.586795
      CHANNELS 3 Zrotation Xrotation Yrotation
      JOINT Neck
      {
        OFFSET 0.293586 7.693771 -0.452073
        CHANNELS 3 Zrotation Xrotation Yrotation
        JOINT Head
        {
          OFFSET 1.629446 13.143088 7.260224
          CHANNELS 3 Zrotation Xrotation Yrotation
          End Site
          {
            OFFSET 0 0 0
          }
        }
      }
      JOINT ShoulderLeft
      {
        OFFSET 1.736419 -3.758689 -12.457114
        CHANNELS 3 Zrotation Xrotation Yrotation
        JOINT ElbowLeft
        {
          OFFSET 2.465488 -29.654737 -7.473235
          CHANNELS 3 Zrotation Xrotation Yrotation
          JOINT WristLeft
          {
            OFFSET 7.136789 -23.014732 -1.119203
            CHANNELS 3 Zrotation Xrotation Yrotation
            JOINT HandLeft
            {
              OFFSET 2.151395 -8.260336 -1.097244
              CHANNELS 3 Zrotation Xrotation Yrotation
              JOINT HandTipLeft
              {
                OFFSET 0.565813 -6.486451 2.132346
                CHANNELS 3 Zrotation Xrotation Yrotation
                End Site
                {
                  OFFSET 0 0 0
                }
              }
              JOINT ThumbLeft
              {
                OFFSET -2.638646 -4.247093 -0.861239
                CHANNELS 3 Zrotation Xrotation Yrotation
                End Site
                {
                  OFFSET 0 0 0
                }
              }
            }
          }
        }
      }
      JOINT ShoulderRight
      {
        OFFSET 9.692057 -4.045063 13.158832
        CHANNELS 3 Zrotation Xrotation Yrotation
        JOINT ElbowRight
        {
          OFFSET -0.696339 -25.802003 1.351671
          CHANNELS 3 Zrotation Xrotation Yrotation
          JOINT WristRight
          {
            OFFSET 0.664000 -28.331968 8.730216
            CHANNELS 3 Zrotation Xrotation Yrotation
            JOINT HandRight
            {
              OFFSET -1.655343 -5.700624 2.785066
              CHANNELS 3 Zrotation Xrotation Yrotation
              JOINT HandTipRight
              {
                OFFSET 0.442529 -0.029612 0.011791
                CHANNELS 3 Zrotation Xrotation Yrotation
                End Site
                {
                  OFFSET 0 0 0
                }
              }
              JOINT ThumbRight
              {
                OFFSET 1.924842 -2.228950 -2.405300
                CHANNELS 3 Zrotation Xrotation Yrotation
                End Site
                {
                  OFFSET 0 0 0
                }
              }
            }
          }
        }
      }
    }
  }
  JOINT HipLeft
  {
    OFFSET -1.767629 1.088896 -6.794541
    CHANNELS 3 Zrotation Xrotation Yrotation
    JOINT KneeLeft
    {
      OFFSET -5.735640 -37.788652 -0.372548
      CHANNELS 3 Zrotation Xrotation Yrotation
      JOINT AnkleLeft
      {
        OFFSET -8.141723 -38.356780 3.384600
        CHANNELS 3 Zrotation Xrotation Yrotation
        JOINT FootLeft
        {
          OFFSET 2.807332 -8.219426 -1.399221
          CHANNELS 3 Zrotation Xrotation Yrotation
          End Site
          {
            OFFSET 0 0 0
          }
        }
      }
    }
  }
  JOINT HipRight
  {
    OFFSET 2.440257 -0.164915 -0.057005
    CHANNELS 3 Zrotation Xrotation Yrotation
    JOINT KneeRight
    {
      OFFSET -6.439192 -38.119803 9.415529
      CHANNELS 3 Zrotation Xrotation Yrotation
      JOINT AnkleRight
      {
        OFFSET 14.736436 -28.938937 -8.025302
        CHANNELS 3 Zrotation Xrotation Yrotation
        JOINT FootRight
        {
          OFFSET -3.783941 -8.621239 5.146002
          CHANNELS 3 Zrotation Xrotation Yrotation
          End Site
          {
            OFFSET 0 0 0
          }
        }
      }
    }
  }
}
MOTION
Frames: 9
Frame Time: 0.033333
-5.999225 78.531954 329.031366 -4.167662 -3.698418 -53.021466 0.307756 0.810288 52.849254 1.018192 -0.540962 -0.007444 -23.627081 -1.361731 15.629402 0.000000 0.000000 0.000000 -17.638111 14.354618 8.937090 57.120586 -25.725120 3.461493 21.589394 -17.090301 -3.332682 -5.112064 30.202747 20.403072 0.000000 0.000000 0.000000 0.000000 0.000000 0.000000 2.315394 3.998302 -0.097673 -0.000000 0.000000 0.000000 -0.000000 0.000000 0.000000 2.186720 -0.107943 -0.575823 0.000000 0.000000 0.000000 0.000000 0.000000 0.000000 -14.714865 15.591602 52.920233 -12.788661 -14.165421 -2.773220 1.429225 5.747434 7.603596 0.000000 0.000000 0.000000 9.699441 24.568331 54.960385 -59.397364 -30.944133 -28.842287 166.635753 31.394241 -102.378979 0.000000 0.000000 0.000000
-3.834449 77.570724 330.883287 -4.411502 -2.844217 -52.093145 0.705100 0.684051 51.920973 1.170110 -0.572134 -0.010087 -28.437682 -3.947792 18.054973 0.000000 0.000000 0.000000 -21.104599 14.455012 10.387569 64.297067 -25.422297 5.109043 26.192760 -14.914092 -4.070637 -8.763648 30.665062 21.988908 0.000000 0.000000 0.000000 0.000000 0.000000 0.000000 2.266316 3.553653 -0.072966 -0.000000 0.000000 0.000000 -0.000000 0.000000 0.000000 2.471174 -0.126561 -0.683817 0.000000 0.000000 0.000000 0.000000 0.000000 0.000000 -16.113809 15.250063 52.051587 -12.138433 -14.391762 -3.190290 1.129346 5.760683 8.912958 0.000000 0.000000 0.000000 10.029269 25.546742 54.002785 -62.837462 -31.992203 -30.728719 170.854009 27.054120 -106.448008 0.000000 0.000000 0.000000
-1.532741 77.019702 333.119201 -4.938141 -1.961578 -52.005255 1.267674 0.654885 51.823431 1.160979 -0.463608 -0.023915 -30.533182 -6.892671 18.901582 0.000000 0.000000 0.000000 -24.370438 14.066883 11.720838 72.909635 -25.293078 7.055496 25.761220 -14.764226 -3.716132 -11.066506 29.313519 23.625476 0.000000 0.000000 0.000000 0.000000 0.000000 0.000000 2.477261 3.023704 -0.035302 -0.000000 0.000000 0.000000 -0.000000 0.000000 0.000000 2.675881 -0.142322 -0.783911 0.000000 0.000000 0.000000 0.000000 0.000000 0.000000 -17.377758 14.480450 52.014010 -10.889927 -13.970790 -3.406560 8.231099 11.866290 11.047428 0.000000 0.000000 0.000000 9.090054 27.023525 53.934032 -66.386451 -33.384061 -33.057860 173.474561 24.599454 -108.936061 0.000000 0.000000 0.000000
0.548737 76.733667 335.298773 -5.649572 -1.076129 -51.979450 1.112585 0.604362 51.802875 1.129513 -0.507568 -0.065917 -29.916620 -9.509176 18.437822 0.000000 0.000000 0.000000 -26.575896 12.980326 12.611829 81.705054 -25.657071 9.097126 23.321688 -16.997031 -2.287429 -10.411573 27.726809 25.365831 0.000000 0.000000 0.000000 0.000000 0.000000 0.000000 3.354519 2.097007 0.055845 -0.000000 0.000000 0.000000 -0.000000 0.000000 0.000000 2.926192 -0.161777 -0.902950 0.000000 0.000000 0.000000 0.000000 0.000000 0.000000 -18.066810 13.697610 52.018058 -9.523270 -13.115453 -3.473610 12.436218 15.880279 12.634968 0.000000 0.000000 0.000000 8.326507 28.461702 53.959645 -70.003399 -33.967894 -34.741779 175.629704 23.173185 -106.858990 0.000000 0.000000 0.000000
2.405986 76.993876 337.402370 -6.760996 -0.105688 -51.800926 1.206953 0.566233 51.626771 1.061647 -0.458274 -0.119208 -25.636121 -11.695098 16.376936 0.000000 0.000000 0.000000 -27.899794 11.195489 12.955924 89.828819 -26.078544 10.548334 17.636615 -21.958884 0.697110 -8.313524 28.846696 25.364288 0.000000 0.000000 0.000000 0.000000 0.000000 0.000000 4.504516 1.182317 0.173561 -0.000000 0.000000 0.000000 -0.000000 0.000000 0.000000 2.890548 -0.169098 -0.995611 0.000000 0.000000 0.000000 0.000000 0.000000 0.000000 -17.994092 12.979421 51.899919 -7.783702 -12.268715 -3.291906 14.436224 19.366956 14.048334 0.000000 0.000000 0.000000 7.815125 29.625297 53.806800 -72.042871 -34.517032 -35.927748 175.148199 24.836274 -106.831064 0.000000 0.000000 0.000000
3.900653 77.368980 339.211523 -8.089013 0.960375 -51.714724 1.150176 0.459474 51.561697 1.051728 -0.473349 -0.185113 -23.923360 -14.280320 15.740239 0.000000 0.000000 0.000000 -28.922762 9.091670 13.094531 97.400707 -26.338067 11.638420 10.723603 -29.732181 5.055677 -4.360524 31.435346 23.672972 0.000000 0.000000 0.000000 0.000000 0.000000 0.000000 5.964451 0.170057 0.336126 -0.000000 0.000000 0.000000 -0.000000 0.000000 0.000000 2.604694 -0.164480 -1.057197 0.000000 0.000000 0.000000 0.000000 0.000000 0.000000 -17.177472 12.110475 51.860304 -5.808422 -11.320724 -2.916813 14.863056 21.976250 15.116963 0.000000 0.000000 0.000000 7.768119 30.434768 53.761033 -73.174620 -34.929080 -36.690294 175.688004 24.909083 -107.329609 0.000000 0.000000 0.000000
4.921930 77.982231 340.517590 -9.606460 1.937681 -50.894187 1.038657 0.354550 50.778048 1.010815 -0.444906 -0.260533 -21.362108 -16.273432 14.933846 0.000000 0.000000 0.000000 -29.262792 6.504499 12.797301 103.587894 -26.392366 11.816535 5.337197 -38.493836 9.869485 -5.845103 34.657540 23.380854 0.000000 0.000000 0.000000 0.000000 0.000000 0.000000 7.673464 -0.842836 0.541390 -0.000000 0.000000 0.000000 -0.000000 0.000000 0.000000 2.089205 -0.148671 -1.089620 0.000000 0.000000 0.000000 0.000000 0.000000 0.000000 -15.718883 11.737134 51.160114 -3.897564 -10.626167 -2.452657 14.200471 24.132413 15.877864 0.000000 0.000000 0.000000 9.231938 30.651660 52.780136 -73.010258 -34.757437 -36.206163 175.779413 25.246092 -108.098191 0.000000 0.000000 0.000000
5.932723 78.722643 341.923924 -11.115422 2.646109 -48.791493 0.970142 0.265854 48.715332 1.007485 -0.435800 -0.328463 -17.638099 -18.387331 13.798446 0.000000 0.000000 0.000000 -29.596041 4.234772 12.530106 108.635016 -26.390166 11.639007 -3.460615 -45.558298 12.869023 3.941541 34.758131 18.163921 0.000000 0.000000 0.000000 0.000000 0.000000 0.000000 9.285486 -1.555130 0.734120 -0.000000 0.000000 0.000000 -0.000000 0.000000 0.000000 1.449373 -0.127093 -1.110201 0.000000 0.000000 0.000000 0.000000 0.000000 0.000000 -14.933708 12.009637 49.294392 -1.381413 -10.981881 -1.795700 12.717988 25.116210 16.145038 0.000000 0.000000 0.000000 10.929013 30.415128 50.313129 -71.815506 -34.875888 -35.536298 175.482036 25.799466 -109.267657 0.000000 0.000000 0.000000
6.674502 79.649888 342.993589 -12.774338 3.286304 -46.305287 0.779700 0.205182 46.287048 0.977218 -0.383278 -0.404423 -13.459162 -19.972014 12.728998 0.000000 0.000000 0.000000 -29.394814 2.517093 12.329736 112.551910 -27.022687 11.975593 -14.942123 -46.877423 11.957829 7.390632 29.390921 16.606816 0.000000 0.000000 0.000000 0.000000 0.000000 0.000000 11.139611 -2.335119 0.975921 -0.000000 0.000000 0.000000 -0.000000 0.000000 0.000000 0.860440 -0.108404 -1.147387 0.000000 0.000000 0.000000 0.000000 0.000000 0.000000 -13.574906 12.608495 47.075512 0.876179 -11.189945 -1.142353 9.001657 25.074169 16.741409 0.000000 0.000000 0.000000 12.844335 29.925354 47.410985 -69.806455 -35.181578 -34.700008 174.816586 26.509129 -110.506545 0.000000 0.000000 0.000000
